<?xml version="1.0" standalone="no"?>
<svg xmlns:xlink="http://www.w3.org/1999/xlink" id="wave" style="transform:rotate(0deg); transition: 0.3s" viewBox="0 0 1440 460" version="1.1" xmlns="http://www.w3.org/2000/svg"><defs><linearGradient id="sw-gradient-0" x1="0" x2="0" y1="1" y2="0"><stop stop-color="rgba(243, 106, 62, 1)" offset="0%"/><stop stop-color="rgba(255, 179, 11, 1)" offset="100%"/></linearGradient></defs><path style="transform:translate(0, 0px); opacity:1" fill="url(#sw-gradient-0)" d="M0,0L48,30.7C96,61,192,123,288,184C384,245,480,307,576,322C672,337,768,307,864,276C960,245,1056,215,1152,199.3C1248,184,1344,184,1440,222.3C1536,261,1632,337,1728,368C1824,399,1920,383,2016,368C2112,353,2208,337,2304,299C2400,261,2496,199,2592,176.3C2688,153,2784,169,2880,145.7C2976,123,3072,61,3168,92C3264,123,3360,245,3456,283.7C3552,322,3648,276,3744,230C3840,184,3936,138,4032,107.3C4128,77,4224,61,4320,84.3C4416,107,4512,169,4608,176.3C4704,184,4800,138,4896,138C4992,138,5088,184,5184,199.3C5280,215,5376,199,5472,176.3C5568,153,5664,123,5760,122.7C5856,123,5952,153,6048,176.3C6144,199,6240,215,6336,222.3C6432,230,6528,230,6624,245.3C6720,261,6816,291,6864,306.7L6912,322L6912,460L6864,460C6816,460,6720,460,6624,460C6528,460,6432,460,6336,460C6240,460,6144,460,6048,460C5952,460,5856,460,5760,460C5664,460,5568,460,5472,460C5376,460,5280,460,5184,460C5088,460,4992,460,4896,460C4800,460,4704,460,4608,460C4512,460,4416,460,4320,460C4224,460,4128,460,4032,460C3936,460,3840,460,3744,460C3648,460,3552,460,3456,460C3360,460,3264,460,3168,460C3072,460,2976,460,2880,460C2784,460,2688,460,2592,460C2496,460,2400,460,2304,460C2208,460,2112,460,2016,460C1920,460,1824,460,1728,460C1632,460,1536,460,1440,460C1344,460,1248,460,1152,460C1056,460,960,460,864,460C768,460,672,460,576,460C480,460,384,460,288,460C192,460,96,460,48,460L0,460Z"/></svg>